{"title":"Wonders Of Nature  S01E01 - Polar Bear Mother And Baby Xvid Wild","uid":9617918,"size":20989952,"categoryP":"video","categoryS":"tv_shows","magnet":"?xt=urn:btih:92703001f23532e53de496c0417175546637667c&amp;dn=Wonders+Of+Nature++S01E01+-+Polar+Bear+Mother+And+Baby+Xvid+Wild&amp;tr=udp%3A%2F%2Ftracker.openbittorrent.com%3A80&amp;tr=udp%3A%2F%2Fopen.demonii.com%3A1337&amp;tr=udp%3A%2F%2Ftracker.coppersurfer.tk%3A6969&amp;tr=udp%3A%2F%2Fexodus.desync.com%3A6969","seeders":0,"leechers":1,"uploader":null,"files":1,"time":1392441984,"description":"Wonders of Nature Series 1 Episode 01\n\n BBC Wildlife series of miniclips\n\n A mother and her baby polar bears explore their habitat.\n\n This short film takes a look at a family of polar bears \n exploring the icy cold surroundings of their Arctic home.\n\n\n Technical:\n\n General\n Complete name : E:TubeDiggerWondersWonders Of NatureWonders Of Nature - S01 - E01 - Polar Bear - Mother And Baby.avi\n Format : AVI\n Format/Info : Audio Video Interleave\n File size : 20.0 MiB\n Duration : 2mn 2s\n Overall bit rate mode : Variable\n Overall bit rate : 1 366 Kbps\n Writing application : VirtualDubMod 1.5.4.1 (build 2178/release)\n Writing library : VirtualDubMod build 2178/release\n\n Video\n ID : 0\n Format : MPEG-4 Visual\n Format profile : Advanced Simple@L5\n Format settings, BVOP : 1\n Format settings, QPel : No\n Format settings, GMC : No warppoints\n Format settings, Matrix : Custom\n Codec ID : XVID\n Codec ID/Hint : XviD\n Duration : 2mn 2s\n Bit rate : 1 238 Kbps\n Width : 720 pixels\n Height : 416 pixels\n Display aspect ratio : 1.731\n Frame rate : 25.000 fps\n Color space : YUV\n Chroma subsampling : 4:2:0\n Bit depth : 8 bits\n Scan type : Progressive\n Compression mode : Lossy\n Bits/(Pixel*Frame) : 0.165\n Stream size : 18.1 MiB (91%)\n Writing library : XviD 1.1.2 (UTC 2006-11-01)\n\n Audio\n ID : 1\n Format : MPEG Audio\n Format version : Version 1\n Format profile : Layer 3\n Mode : Joint stereo\n Mode extension : MS Stereo\n Codec ID : 55\n Codec ID/Hint : MP3\n Duration : 2mn 2s\n Bit rate mode : Variable\n Bit rate : 114 Kbps\n Nominal bit rate : 128 Kbps\n Channel(s) : 2 channels\n Sampling rate : 48.0 KHz\n Compression mode : Lossy\n Stream size : 1.68 MiB (8%)\n Alignment : Aligned on interleaves\n Interleave, duration : 24 ms (0.60 video frame)\n Interleave, preload duration : 534 ms\n Writing library : LAME3.98r\n Encoding settings : -m j -V 4 -q 2 -lowpass 17 --abr 128","torrent":{"xt":"urn:btih:92703001f23532e53de496c0417175546637667c","amp;dn":"Wonders+Of+Nature++S01E01+-+Polar+Bear+Mother+And+Baby+Xvid+Wild","amp;tr":["udp%3A%2F%2Ftracker.openbittorrent.com%3A80","udp%3A%2F%2Fopen.demonii.com%3A1337","udp%3A%2F%2Ftracker.coppersurfer.tk%3A6969","udp%3A%2F%2Fexodus.desync.com%3A6969"],"infoHash":"92703001f23532e53de496c0417175546637667c","infoHashBuffer":{"type":"Buffer","data":[146,112,48,1,242,53,50,229,61,228,150,192,65,113,117,84,102,55,102,124]},"announce":[],"urlList":[]}}